<mxfile host="app.diagrams.net" agent="Mozilla/5.0 (Windows NT 10.0; Win64; x64) AppleWebKit/537.36 (KHTML, like Gecko) Chrome/138.0.0.0 Safari/537.36" version="28.0.7">
  <diagram id="C5RBs43oDa-KdzZeNtuy" name="Page-1">
    <mxGraphModel dx="1427" dy="899" grid="1" gridSize="10" guides="1" tooltips="1" connect="1" arrows="1" fold="1" page="1" pageScale="1" pageWidth="827" pageHeight="1169" math="0" shadow="0">
      <root>
        <mxCell id="WIyWlLk6GJQsqaUBKTNV-0" />
        <mxCell id="WIyWlLk6GJQsqaUBKTNV-1" parent="WIyWlLk6GJQsqaUBKTNV-0" />
        <mxCell id="c7eULADYTET5OXdtKNgV-1" style="edgeStyle=orthogonalEdgeStyle;rounded=0;orthogonalLoop=1;jettySize=auto;html=1;entryX=0;entryY=0.5;entryDx=0;entryDy=0;" edge="1" parent="WIyWlLk6GJQsqaUBKTNV-1" source="nJ9DiVHBXQ9RJd5v6KBx-0" target="nJ9DiVHBXQ9RJd5v6KBx-2">
          <mxGeometry relative="1" as="geometry" />
        </mxCell>
        <mxCell id="nJ9DiVHBXQ9RJd5v6KBx-0" value="Mulai" style="ellipse;whiteSpace=wrap;html=1;" parent="WIyWlLk6GJQsqaUBKTNV-1" vertex="1">
          <mxGeometry x="80" y="60" width="120" height="80" as="geometry" />
        </mxCell>
        <mxCell id="c7eULADYTET5OXdtKNgV-2" style="edgeStyle=orthogonalEdgeStyle;rounded=0;orthogonalLoop=1;jettySize=auto;html=1;" edge="1" parent="WIyWlLk6GJQsqaUBKTNV-1" source="nJ9DiVHBXQ9RJd5v6KBx-2" target="nJ9DiVHBXQ9RJd5v6KBx-4">
          <mxGeometry relative="1" as="geometry" />
        </mxCell>
        <mxCell id="nJ9DiVHBXQ9RJd5v6KBx-2" value="Buka Website" style="rounded=0;whiteSpace=wrap;html=1;" parent="WIyWlLk6GJQsqaUBKTNV-1" vertex="1">
          <mxGeometry x="600" y="70" width="120" height="60" as="geometry" />
        </mxCell>
        <mxCell id="c7eULADYTET5OXdtKNgV-3" style="edgeStyle=orthogonalEdgeStyle;rounded=0;orthogonalLoop=1;jettySize=auto;html=1;entryX=1;entryY=0.5;entryDx=0;entryDy=0;" edge="1" parent="WIyWlLk6GJQsqaUBKTNV-1" source="nJ9DiVHBXQ9RJd5v6KBx-4" target="nJ9DiVHBXQ9RJd5v6KBx-6">
          <mxGeometry relative="1" as="geometry" />
        </mxCell>
        <mxCell id="nJ9DiVHBXQ9RJd5v6KBx-4" value="Akses Halaman Home" style="rounded=0;whiteSpace=wrap;html=1;" parent="WIyWlLk6GJQsqaUBKTNV-1" vertex="1">
          <mxGeometry x="600" y="190" width="120" height="60" as="geometry" />
        </mxCell>
        <mxCell id="nJ9DiVHBXQ9RJd5v6KBx-9" value="" style="edgeStyle=orthogonalEdgeStyle;rounded=0;orthogonalLoop=1;jettySize=auto;html=1;" parent="WIyWlLk6GJQsqaUBKTNV-1" source="nJ9DiVHBXQ9RJd5v6KBx-6" target="nJ9DiVHBXQ9RJd5v6KBx-8" edge="1">
          <mxGeometry relative="1" as="geometry" />
        </mxCell>
        <mxCell id="nJ9DiVHBXQ9RJd5v6KBx-6" value="Klik &quot;Daftar Kamar&quot;" style="rounded=0;whiteSpace=wrap;html=1;" parent="WIyWlLk6GJQsqaUBKTNV-1" vertex="1">
          <mxGeometry x="90" y="190" width="120" height="60" as="geometry" />
        </mxCell>
        <mxCell id="nJ9DiVHBXQ9RJd5v6KBx-11" value="" style="edgeStyle=orthogonalEdgeStyle;rounded=0;orthogonalLoop=1;jettySize=auto;html=1;" parent="WIyWlLk6GJQsqaUBKTNV-1" source="nJ9DiVHBXQ9RJd5v6KBx-8" target="nJ9DiVHBXQ9RJd5v6KBx-10" edge="1">
          <mxGeometry relative="1" as="geometry" />
        </mxCell>
        <mxCell id="nJ9DiVHBXQ9RJd5v6KBx-8" value="Tampilkan Daftar Kamar" style="rounded=0;whiteSpace=wrap;html=1;" parent="WIyWlLk6GJQsqaUBKTNV-1" vertex="1">
          <mxGeometry x="90" y="310" width="120" height="60" as="geometry" />
        </mxCell>
        <mxCell id="nJ9DiVHBXQ9RJd5v6KBx-13" value="" style="edgeStyle=orthogonalEdgeStyle;rounded=0;orthogonalLoop=1;jettySize=auto;html=1;" parent="WIyWlLk6GJQsqaUBKTNV-1" source="nJ9DiVHBXQ9RJd5v6KBx-10" target="nJ9DiVHBXQ9RJd5v6KBx-12" edge="1">
          <mxGeometry relative="1" as="geometry" />
        </mxCell>
        <mxCell id="nJ9DiVHBXQ9RJd5v6KBx-10" value="Pilih kamar dan klik&lt;br&gt;&quot;Booking" style="rounded=0;whiteSpace=wrap;html=1;" parent="WIyWlLk6GJQsqaUBKTNV-1" vertex="1">
          <mxGeometry x="600" y="310" width="120" height="60" as="geometry" />
        </mxCell>
        <mxCell id="nJ9DiVHBXQ9RJd5v6KBx-15" value="" style="edgeStyle=orthogonalEdgeStyle;rounded=0;orthogonalLoop=1;jettySize=auto;html=1;" parent="WIyWlLk6GJQsqaUBKTNV-1" source="nJ9DiVHBXQ9RJd5v6KBx-12" target="nJ9DiVHBXQ9RJd5v6KBx-14" edge="1">
          <mxGeometry relative="1" as="geometry" />
        </mxCell>
        <mxCell id="nJ9DiVHBXQ9RJd5v6KBx-12" value="Isi form booking" style="rounded=0;whiteSpace=wrap;html=1;" parent="WIyWlLk6GJQsqaUBKTNV-1" vertex="1">
          <mxGeometry x="600" y="440" width="120" height="60" as="geometry" />
        </mxCell>
        <mxCell id="nJ9DiVHBXQ9RJd5v6KBx-17" value="" style="edgeStyle=orthogonalEdgeStyle;rounded=0;orthogonalLoop=1;jettySize=auto;html=1;" parent="WIyWlLk6GJQsqaUBKTNV-1" source="nJ9DiVHBXQ9RJd5v6KBx-14" target="nJ9DiVHBXQ9RJd5v6KBx-16" edge="1">
          <mxGeometry relative="1" as="geometry" />
        </mxCell>
        <mxCell id="nJ9DiVHBXQ9RJd5v6KBx-14" value="Klik &quot;Kirim&quot;" style="rounded=0;whiteSpace=wrap;html=1;" parent="WIyWlLk6GJQsqaUBKTNV-1" vertex="1">
          <mxGeometry x="90" y="440" width="120" height="60" as="geometry" />
        </mxCell>
        <mxCell id="nJ9DiVHBXQ9RJd5v6KBx-19" value="" style="edgeStyle=orthogonalEdgeStyle;rounded=0;orthogonalLoop=1;jettySize=auto;html=1;" parent="WIyWlLk6GJQsqaUBKTNV-1" source="nJ9DiVHBXQ9RJd5v6KBx-16" target="nJ9DiVHBXQ9RJd5v6KBx-18" edge="1">
          <mxGeometry relative="1" as="geometry" />
        </mxCell>
        <mxCell id="nJ9DiVHBXQ9RJd5v6KBx-16" value="Data tersimpan di database" style="rounded=0;whiteSpace=wrap;html=1;" parent="WIyWlLk6GJQsqaUBKTNV-1" vertex="1">
          <mxGeometry x="90" y="585" width="120" height="60" as="geometry" />
        </mxCell>
        <mxCell id="c7eULADYTET5OXdtKNgV-5" style="edgeStyle=orthogonalEdgeStyle;rounded=0;orthogonalLoop=1;jettySize=auto;html=1;entryX=0.5;entryY=0;entryDx=0;entryDy=0;" edge="1" parent="WIyWlLk6GJQsqaUBKTNV-1" source="nJ9DiVHBXQ9RJd5v6KBx-18" target="nJ9DiVHBXQ9RJd5v6KBx-22">
          <mxGeometry relative="1" as="geometry" />
        </mxCell>
        <mxCell id="nJ9DiVHBXQ9RJd5v6KBx-18" value="Tampilkan notif berhasil" style="rounded=0;whiteSpace=wrap;html=1;" parent="WIyWlLk6GJQsqaUBKTNV-1" vertex="1">
          <mxGeometry x="600" y="585" width="120" height="60" as="geometry" />
        </mxCell>
        <mxCell id="nJ9DiVHBXQ9RJd5v6KBx-22" value="Selesai" style="ellipse;whiteSpace=wrap;html=1;" parent="WIyWlLk6GJQsqaUBKTNV-1" vertex="1">
          <mxGeometry x="600" y="760" width="120" height="80" as="geometry" />
        </mxCell>
        <mxCell id="c7eULADYTET5OXdtKNgV-0" value="" style="group" vertex="1" connectable="0" parent="WIyWlLk6GJQsqaUBKTNV-1">
          <mxGeometry x="90" y="1020" width="480" height="430" as="geometry" />
        </mxCell>
        <mxCell id="nJ9DiVHBXQ9RJd5v6KBx-25" value="" style="edgeStyle=orthogonalEdgeStyle;rounded=0;orthogonalLoop=1;jettySize=auto;html=1;" parent="c7eULADYTET5OXdtKNgV-0" source="nJ9DiVHBXQ9RJd5v6KBx-23" target="nJ9DiVHBXQ9RJd5v6KBx-24" edge="1">
          <mxGeometry relative="1" as="geometry" />
        </mxCell>
        <mxCell id="nJ9DiVHBXQ9RJd5v6KBx-23" value="Admin login" style="ellipse;whiteSpace=wrap;html=1;" parent="c7eULADYTET5OXdtKNgV-0" vertex="1">
          <mxGeometry width="120" height="80" as="geometry" />
        </mxCell>
        <mxCell id="nJ9DiVHBXQ9RJd5v6KBx-27" value="" style="edgeStyle=orthogonalEdgeStyle;rounded=0;orthogonalLoop=1;jettySize=auto;html=1;" parent="c7eULADYTET5OXdtKNgV-0" source="nJ9DiVHBXQ9RJd5v6KBx-24" target="nJ9DiVHBXQ9RJd5v6KBx-26" edge="1">
          <mxGeometry relative="1" as="geometry" />
        </mxCell>
        <mxCell id="nJ9DiVHBXQ9RJd5v6KBx-24" value="Validasi login" style="whiteSpace=wrap;html=1;" parent="c7eULADYTET5OXdtKNgV-0" vertex="1">
          <mxGeometry y="120" width="120" height="60" as="geometry" />
        </mxCell>
        <mxCell id="nJ9DiVHBXQ9RJd5v6KBx-29" value="YA" style="edgeStyle=orthogonalEdgeStyle;rounded=0;orthogonalLoop=1;jettySize=auto;html=1;" parent="c7eULADYTET5OXdtKNgV-0" source="nJ9DiVHBXQ9RJd5v6KBx-26" target="nJ9DiVHBXQ9RJd5v6KBx-28" edge="1">
          <mxGeometry relative="1" as="geometry" />
        </mxCell>
        <mxCell id="nJ9DiVHBXQ9RJd5v6KBx-39" value="TiIDAK" style="edgeStyle=orthogonalEdgeStyle;rounded=0;orthogonalLoop=1;jettySize=auto;html=1;" parent="c7eULADYTET5OXdtKNgV-0" source="nJ9DiVHBXQ9RJd5v6KBx-26" target="nJ9DiVHBXQ9RJd5v6KBx-38" edge="1">
          <mxGeometry relative="1" as="geometry" />
        </mxCell>
        <mxCell id="nJ9DiVHBXQ9RJd5v6KBx-26" value="" style="rhombus;whiteSpace=wrap;html=1;" parent="c7eULADYTET5OXdtKNgV-0" vertex="1">
          <mxGeometry x="20" y="220" width="80" height="80" as="geometry" />
        </mxCell>
        <mxCell id="nJ9DiVHBXQ9RJd5v6KBx-28" value="Masuk dashboard admin" style="whiteSpace=wrap;html=1;" parent="c7eULADYTET5OXdtKNgV-0" vertex="1">
          <mxGeometry y="360" width="120" height="60" as="geometry" />
        </mxCell>
        <mxCell id="nJ9DiVHBXQ9RJd5v6KBx-33" value="Logout" style="whiteSpace=wrap;html=1;" parent="c7eULADYTET5OXdtKNgV-0" vertex="1">
          <mxGeometry x="180" y="360" width="120" height="60" as="geometry" />
        </mxCell>
        <mxCell id="nJ9DiVHBXQ9RJd5v6KBx-37" value="Selesai" style="ellipse;whiteSpace=wrap;html=1;" parent="c7eULADYTET5OXdtKNgV-0" vertex="1">
          <mxGeometry x="360" y="350" width="120" height="80" as="geometry" />
        </mxCell>
        <mxCell id="nJ9DiVHBXQ9RJd5v6KBx-40" style="edgeStyle=orthogonalEdgeStyle;rounded=0;orthogonalLoop=1;jettySize=auto;html=1;exitX=0.5;exitY=0;exitDx=0;exitDy=0;entryX=1;entryY=0.5;entryDx=0;entryDy=0;" parent="c7eULADYTET5OXdtKNgV-0" source="nJ9DiVHBXQ9RJd5v6KBx-38" target="nJ9DiVHBXQ9RJd5v6KBx-23" edge="1">
          <mxGeometry relative="1" as="geometry" />
        </mxCell>
        <mxCell id="nJ9DiVHBXQ9RJd5v6KBx-38" value="Tampilkan pesan error" style="whiteSpace=wrap;html=1;" parent="c7eULADYTET5OXdtKNgV-0" vertex="1">
          <mxGeometry x="180" y="230" width="120" height="60" as="geometry" />
        </mxCell>
        <mxCell id="nJ9DiVHBXQ9RJd5v6KBx-34" value="" style="edgeStyle=orthogonalEdgeStyle;rounded=0;orthogonalLoop=1;jettySize=auto;html=1;" parent="c7eULADYTET5OXdtKNgV-0" source="nJ9DiVHBXQ9RJd5v6KBx-28" target="nJ9DiVHBXQ9RJd5v6KBx-33" edge="1">
          <mxGeometry relative="1" as="geometry" />
        </mxCell>
        <mxCell id="nJ9DiVHBXQ9RJd5v6KBx-36" value="" style="edgeStyle=orthogonalEdgeStyle;rounded=0;orthogonalLoop=1;jettySize=auto;html=1;" parent="c7eULADYTET5OXdtKNgV-0" source="nJ9DiVHBXQ9RJd5v6KBx-33" target="nJ9DiVHBXQ9RJd5v6KBx-37" edge="1">
          <mxGeometry relative="1" as="geometry">
            <mxPoint x="60" y="780" as="targetPoint" />
          </mxGeometry>
        </mxCell>
      </root>
    </mxGraphModel>
  </diagram>
</mxfile>
